<svg xmlns="http://www.w3.org/2000/svg" xmlns:xlink="http://www.w3.org/1999/xlink" width="500" zoomAndPan="magnify" viewBox="0 0 375 374.999991" height="500" preserveAspectRatio="xMidYMid meet" version="1.0"><defs><g/></defs><g fill="#000000" fill-opacity="1"><g transform="translate(136.809485, 252.418855)"><g><path d="M 11.242188 0 L 46.949219 0 L 46.949219 -2.867188 C 40.117188 -4.847656 38.132812 -9.917969 38.132812 -27.992188 L 38.132812 -82.65625 L 64.363281 -82.65625 C 89.488281 -82.65625 95.660156 -77.367188 98.527344 -67.445312 L 101.171875 -67.445312 L 101.171875 -100.949219 L 98.527344 -100.949219 C 95.660156 -91.253906 89.488281 -85.960938 64.363281 -86.183594 L 38.132812 -86.183594 L 38.132812 -150.765625 L 77.144531 -150.765625 C 97.863281 -150.765625 107.121094 -145.253906 114.617188 -130.484375 L 117.039062 -131.148438 L 115.058594 -154.292969 L 11.242188 -154.292969 L 11.242188 -151.425781 C 17.855469 -149.441406 20.058594 -144.371094 20.058594 -126.296875 L 20.058594 -27.992188 C 20.058594 -9.917969 17.855469 -4.847656 11.242188 -2.867188 Z M 11.242188 0 "/></g></g></g><g fill="#96695e" fill-opacity="1"><g transform="translate(50.578126, 221.028528)"><g><path d="M 260.828125 31.421875 C 255.890625 33.953125 250.140625 36.0625 243.578125 37.75 C 237.015625 39.4375 231.171875 40.519531 226.046875 41 C 220.929688 41.476562 216.390625 41.71875 212.421875 41.71875 C 199.410156 41.71875 186.101562 39.492188 172.5 35.046875 C 167.195312 33.359375 158.285156 29.984375 145.765625 24.921875 C 114.453125 12.398438 92.65625 4.9375 80.375 2.53125 L 80.375 0.71875 C 80.5 0.71875 80.679688 0.71875 80.921875 0.71875 C 101.867188 0.71875 117.882812 -6.144531 128.96875 -19.875 C 137.15625 -30.101562 141.25 -43.859375 141.25 -61.140625 C 141.25 -78.421875 135.832031 -93.203125 125 -105.484375 C 113.914062 -118.128906 99.523438 -124.453125 81.828125 -124.453125 C 71.109375 -124.453125 61.234375 -121.921875 52.203125 -116.859375 C 43.171875 -111.804688 36.035156 -104.582031 30.796875 -95.1875 C 25.554688 -85.789062 22.9375 -75.195312 22.9375 -63.40625 C 22.9375 -55.332031 24.320312 -47.800781 27.09375 -40.8125 C 29.863281 -33.832031 33.71875 -28.113281 38.65625 -23.65625 C 45.757812 -17.15625 54.007812 -13.90625 63.40625 -13.90625 C 68.457031 -13.90625 73.515625 -15.050781 78.578125 -17.34375 C 86.035156 -20.707031 91.03125 -26.363281 93.5625 -34.3125 L 95.1875 -33.78125 C 92.894531 -25.101562 88.195312 -18.421875 81.09375 -13.734375 C 75.800781 -10.234375 69.363281 -8.484375 61.78125 -8.484375 C 59.363281 -8.484375 56.769531 -8.664062 54 -9.03125 C 39.914062 -11.082031 28.898438 -17.132812 20.953125 -27.1875 C 13.003906 -37.238281 9.03125 -48.945312 9.03125 -62.3125 C 9.03125 -75.675781 12.25 -87.503906 18.6875 -97.796875 C 25.132812 -108.097656 33.863281 -116.019531 44.875 -121.5625 C 55.894531 -127.101562 67.96875 -129.875 81.09375 -129.875 C 95.664062 -129.875 108.609375 -126.800781 119.921875 -120.65625 C 131.242188 -114.519531 139.945312 -106.363281 146.03125 -96.1875 C 152.113281 -86.007812 155.15625 -74.835938 155.15625 -62.671875 C 155.15625 -52.679688 153.378906 -43.617188 149.828125 -35.484375 C 146.273438 -27.359375 141.671875 -20.707031 136.015625 -15.53125 C 124.691406 -5.175781 111.925781 0.960938 97.71875 2.890625 C 107.46875 4.816406 122.578125 8.816406 143.046875 14.890625 C 163.523438 20.972656 173.820312 24.015625 173.9375 24.015625 C 191.28125 28.835938 207.957031 31.25 223.96875 31.25 C 233.125 31.25 242.15625 30.34375 251.0625 28.53125 C 263.832031 26.125 273.53125 21.671875 280.15625 15.171875 L 280.875 16.078125 C 277.625 21.253906 270.941406 26.367188 260.828125 31.421875 Z M 260.828125 31.421875 "/></g></g></g></svg>